<svg width="669" height="670" viewBox="0 0 669 670" fill="none" xmlns="http://www.w3.org/2000/svg">
<path d="M55.75 335H111.5V474.375H557.5V335H613.25V474.375C613.25 505.316 588.441 530.125 557.5 530.125H111.5C80.8375 530.125 55.75 505.316 55.75 474.375V335ZM334.5 56.25L180.073 208.448L219.655 248.03L306.625 160.781V418.625H362.375V160.781L449.624 248.03L489.206 208.169L334.5 56.25Z" fill="#0AFD01"/>
<path d="M171.936 567.496V588.232C171.936 590.504 172.528 592.248 173.712 593.464C174.896 594.648 176.56 595.24 178.704 595.24C180.88 595.24 182.56 594.648 183.744 593.464C184.928 592.248 185.52 590.504 185.52 588.232V567.496H192.288V588.184C192.288 591.032 191.664 593.448 190.416 595.432C189.2 597.384 187.552 598.856 185.472 599.848C183.424 600.84 181.136 601.336 178.608 601.336C176.112 601.336 173.84 600.84 171.792 599.848C169.776 598.856 168.176 597.384 166.992 595.432C165.808 593.448 165.216 591.032 165.216 588.184V567.496H171.936ZM205.501 578.248C206.365 577.032 207.549 576.024 209.053 575.224C210.589 574.392 212.333 573.976 214.285 573.976C216.557 573.976 218.605 574.536 220.429 575.656C222.285 576.776 223.741 578.376 224.797 580.456C225.885 582.504 226.429 584.888 226.429 587.608C226.429 590.328 225.885 592.744 224.797 594.856C223.741 596.936 222.285 598.552 220.429 599.704C218.605 600.856 216.557 601.432 214.285 601.432C212.333 601.432 210.605 601.032 209.101 600.232C207.629 599.432 206.429 598.424 205.501 597.208V613.672H198.781V574.408H205.501V578.248ZM219.565 587.608C219.565 586.008 219.229 584.632 218.557 583.48C217.917 582.296 217.053 581.4 215.965 580.792C214.909 580.184 213.757 579.88 212.509 579.88C211.293 579.88 210.141 580.2 209.053 580.84C207.997 581.448 207.133 582.344 206.461 583.528C205.821 584.712 205.501 586.104 205.501 587.704C205.501 589.304 205.821 590.696 206.461 591.88C207.133 593.064 207.997 593.976 209.053 594.616C210.141 595.224 211.293 595.528 212.509 595.528C213.757 595.528 214.909 595.208 215.965 594.568C217.053 593.928 217.917 593.016 218.557 591.832C219.229 590.648 219.565 589.24 219.565 587.608ZM238.032 565.48V601H231.312V565.48H238.032ZM256.479 601.432C253.919 601.432 251.615 600.872 249.567 599.752C247.519 598.6 245.903 596.984 244.719 594.904C243.567 592.824 242.991 590.424 242.991 587.704C242.991 584.984 243.583 582.584 244.767 580.504C245.983 578.424 247.631 576.824 249.711 575.704C251.791 574.552 254.111 573.976 256.671 573.976C259.231 573.976 261.551 574.552 263.631 575.704C265.711 576.824 267.343 578.424 268.527 580.504C269.743 582.584 270.351 584.984 270.351 587.704C270.351 590.424 269.727 592.824 268.479 594.904C267.263 596.984 265.599 598.6 263.487 599.752C261.407 600.872 259.071 601.432 256.479 601.432ZM256.479 595.576C257.695 595.576 258.831 595.288 259.887 594.712C260.975 594.104 261.839 593.208 262.479 592.024C263.119 590.84 263.439 589.4 263.439 587.704C263.439 585.176 262.767 583.24 261.423 581.896C260.111 580.52 258.495 579.832 256.575 579.832C254.655 579.832 253.039 580.52 251.727 581.896C250.447 583.24 249.807 585.176 249.807 587.704C249.807 590.232 250.431 592.184 251.679 593.56C252.959 594.904 254.559 595.576 256.479 595.576ZM273.553 587.608C273.553 584.92 274.081 582.536 275.137 580.456C276.225 578.376 277.681 576.776 279.505 575.656C281.361 574.536 283.425 573.976 285.697 573.976C287.681 573.976 289.409 574.376 290.881 575.176C292.385 575.976 293.585 576.984 294.481 578.2V574.408H301.249V601H294.481V597.112C293.617 598.36 292.417 599.4 290.881 600.232C289.377 601.032 287.633 601.432 285.649 601.432C283.409 601.432 281.361 600.856 279.505 599.704C277.681 598.552 276.225 596.936 275.137 594.856C274.081 592.744 273.553 590.328 273.553 587.608ZM294.481 587.704C294.481 586.072 294.161 584.68 293.521 583.528C292.881 582.344 292.017 581.448 290.929 580.84C289.841 580.2 288.673 579.88 287.425 579.88C286.177 579.88 285.025 580.184 283.969 580.792C282.913 581.4 282.049 582.296 281.377 583.48C280.737 584.632 280.417 586.008 280.417 587.608C280.417 589.208 280.737 590.616 281.377 591.832C282.049 593.016 282.913 593.928 283.969 594.568C285.057 595.208 286.209 595.528 287.425 595.528C288.673 595.528 289.841 595.224 290.929 594.616C292.017 593.976 292.881 593.08 293.521 591.928C294.161 590.744 294.481 589.336 294.481 587.704ZM306.084 587.608C306.084 584.92 306.612 582.536 307.668 580.456C308.756 578.376 310.228 576.776 312.084 575.656C313.94 574.536 316.004 573.976 318.276 573.976C320.004 573.976 321.652 574.36 323.22 575.128C324.788 575.864 326.036 576.856 326.964 578.104V565.48H333.78V601H326.964V597.064C326.132 598.376 324.964 599.432 323.46 600.232C321.956 601.032 320.212 601.432 318.228 601.432C315.988 601.432 313.94 600.856 312.084 599.704C310.228 598.552 308.756 596.936 307.668 594.856C306.612 592.744 306.084 590.328 306.084 587.608ZM327.012 587.704C327.012 586.072 326.692 584.68 326.052 583.528C325.412 582.344 324.548 581.448 323.46 580.84C322.372 580.2 321.204 579.88 319.956 579.88C318.708 579.88 317.556 580.184 316.5 580.792C315.444 581.4 314.58 582.296 313.908 583.48C313.268 584.632 312.948 586.008 312.948 587.608C312.948 589.208 313.268 590.616 313.908 591.832C314.58 593.016 315.444 593.928 316.5 594.568C317.588 595.208 318.74 595.528 319.956 595.528C321.204 595.528 322.372 595.224 323.46 594.616C324.548 593.976 325.412 593.08 326.052 591.928C326.692 590.744 327.012 589.336 327.012 587.704ZM358.501 567.496V601H351.781V567.496H358.501ZM398.164 574.024C401.428 574.024 404.052 575.032 406.036 577.048C408.052 579.032 409.06 581.816 409.06 585.4V601H402.34V586.312C402.34 584.232 401.812 582.648 400.756 581.56C399.7 580.44 398.26 579.88 396.436 579.88C394.612 579.88 393.156 580.44 392.068 581.56C391.012 582.648 390.484 584.232 390.484 586.312V601H383.764V586.312C383.764 584.232 383.236 582.648 382.18 581.56C381.124 580.44 379.684 579.88 377.86 579.88C376.004 579.88 374.532 580.44 373.444 581.56C372.388 582.648 371.86 584.232 371.86 586.312V601H365.14V574.408H371.86V577.624C372.724 576.504 373.828 575.624 375.172 574.984C376.548 574.344 378.052 574.024 379.684 574.024C381.764 574.024 383.62 574.472 385.252 575.368C386.884 576.232 388.148 577.48 389.044 579.112C389.908 577.576 391.156 576.344 392.788 575.416C394.452 574.488 396.244 574.024 398.164 574.024ZM413.709 587.608C413.709 584.92 414.237 582.536 415.293 580.456C416.381 578.376 417.837 576.776 419.661 575.656C421.517 574.536 423.581 573.976 425.853 573.976C427.837 573.976 429.565 574.376 431.037 575.176C432.541 575.976 433.741 576.984 434.637 578.2V574.408H441.405V601H434.637V597.112C433.773 598.36 432.573 599.4 431.037 600.232C429.533 601.032 427.789 601.432 425.805 601.432C423.565 601.432 421.517 600.856 419.661 599.704C417.837 598.552 416.381 596.936 415.293 594.856C414.237 592.744 413.709 590.328 413.709 587.608ZM434.637 587.704C434.637 586.072 434.317 584.68 433.677 583.528C433.037 582.344 432.173 581.448 431.085 580.84C429.997 580.2 428.829 579.88 427.581 579.88C426.333 579.88 425.181 580.184 424.125 580.792C423.069 581.4 422.205 582.296 421.533 583.48C420.893 584.632 420.573 586.008 420.573 587.608C420.573 589.208 420.893 590.616 421.533 591.832C422.205 593.016 423.069 593.928 424.125 594.568C425.213 595.208 426.365 595.528 427.581 595.528C428.829 595.528 429.997 595.224 431.085 594.616C432.173 593.976 433.037 593.08 433.677 591.928C434.317 590.744 434.637 589.336 434.637 587.704ZM458.384 573.976C460.368 573.976 462.112 574.376 463.616 575.176C465.12 575.944 466.304 576.952 467.168 578.2V574.408H473.936V601.192C473.936 603.656 473.44 605.848 472.448 607.768C471.456 609.72 469.968 611.256 467.984 612.376C466 613.528 463.6 614.104 460.784 614.104C457.008 614.104 453.904 613.224 451.472 611.464C449.072 609.704 447.712 607.304 447.392 604.264H454.064C454.416 605.48 455.168 606.44 456.32 607.144C457.504 607.88 458.928 608.248 460.592 608.248C462.544 608.248 464.128 607.656 465.344 606.472C466.56 605.32 467.168 603.56 467.168 601.192V597.064C466.304 598.312 465.104 599.352 463.568 600.184C462.064 601.016 460.336 601.432 458.384 601.432C456.144 601.432 454.096 600.856 452.24 599.704C450.384 598.552 448.912 596.936 447.824 594.856C446.768 592.744 446.24 590.328 446.24 587.608C446.24 584.92 446.768 582.536 447.824 580.456C448.912 578.376 450.368 576.776 452.192 575.656C454.048 574.536 456.112 573.976 458.384 573.976ZM467.168 587.704C467.168 586.072 466.848 584.68 466.208 583.528C465.568 582.344 464.704 581.448 463.616 580.84C462.528 580.2 461.36 579.88 460.112 579.88C458.864 579.88 457.712 580.184 456.656 580.792C455.6 581.4 454.736 582.296 454.064 583.48C453.424 584.632 453.104 586.008 453.104 587.608C453.104 589.208 453.424 590.616 454.064 591.832C454.736 593.016 455.6 593.928 456.656 594.568C457.744 595.208 458.896 595.528 460.112 595.528C461.36 595.528 462.528 595.224 463.616 594.616C464.704 593.976 465.568 593.08 466.208 591.928C466.848 590.744 467.168 589.336 467.168 587.704ZM505.22 587.128C505.22 588.088 505.156 588.952 505.028 589.72H485.588C485.748 591.64 486.42 593.144 487.604 594.232C488.788 595.32 490.244 595.864 491.972 595.864C494.468 595.864 496.244 594.792 497.3 592.648H504.548C503.78 595.208 502.308 597.32 500.132 598.984C497.956 600.616 495.284 601.432 492.116 601.432C489.556 601.432 487.252 600.872 485.204 599.752C483.188 598.6 481.604 596.984 480.452 594.904C479.332 592.824 478.771 590.424 478.771 587.704C478.771 584.952 479.332 582.536 480.452 580.456C481.572 578.376 483.14 576.776 485.156 575.656C487.172 574.536 489.492 573.976 492.116 573.976C494.644 573.976 496.9 574.52 498.884 575.608C500.9 576.696 502.452 578.248 503.54 580.264C504.66 582.248 505.22 584.536 505.22 587.128ZM498.26 585.208C498.228 583.48 497.604 582.104 496.388 581.08C495.172 580.024 493.684 579.496 491.924 579.496C490.26 579.496 488.852 580.008 487.7 581.032C486.58 582.024 485.892 583.416 485.636 585.208H498.26Z" fill="#0AFD01"/>
</svg>
